<svg xmlns="http://www.w3.org/2000/svg" viewBox="0 0 524.8 135.96"><defs><style>.cls-1{font-size:18.12px;fill:#6a6a6a;font-family:Montserrat-SemiBold, Montserrat;font-weight:600;letter-spacing:0em;}.cls-2{letter-spacing:-0.01em;}.cls-3{letter-spacing:-0.01em;}.cls-4{letter-spacing:0em;}.cls-5{letter-spacing:-0.01em;}.cls-6{letter-spacing:0em;}.cls-7{letter-spacing:-0.02em;}.cls-8{font-size:94.3px;stroke:#0ca7a9;stroke-miterlimit:10;stroke-width:3px;font-family:Luxia-Display, Luxia;letter-spacing:-0.01em;}.cls-15,.cls-8{fill:#0ca7a9;}.cls-9{letter-spacing:-0.09em;}.cls-10{letter-spacing:-0.1em;}.cls-11,.cls-12,.cls-13,.cls-14{fill:#d36601;}.cls-11,.cls-12,.cls-13{stroke:#d36601;}.cls-11{letter-spacing:-0.15em;}.cls-12{letter-spacing:-0.01em;}.cls-13{letter-spacing:-0.12em;}</style></defs><g id="Layer_2" data-name="Layer 2"><g id="Layer_3" data-name="Layer 3"><g id="luxia"><text class="cls-1" transform="translate(156.49 119.79)">P<tspan class="cls-2" x="13.13" y="0">h</tspan><tspan class="cls-3" x="25.35" y="0">y</tspan><tspan x="35.67" y="0">siot</tspan><tspan class="cls-4" x="69.53" y="0">h</tspan><tspan x="82.02" y="0">e</tspan><tspan class="cls-5" x="93.27" y="0">r</tspan><tspan class="cls-6" x="100.71" y="0">a</tspan><tspan class="cls-7" x="111.69" y="0">p</tspan><tspan x="123.83" y="0">y a</tspan><tspan class="cls-4" x="150.24" y="0">n</tspan><tspan class="cls-6" x="162.73" y="0">d Rehabilitation Clinic</tspan></text><text class="cls-8" transform="translate(160.07 83.16)">Jes<tspan class="cls-9" x="126.26" y="0">s</tspan><tspan class="cls-10" x="162.57" y="0">y</tspan><tspan class="cls-11" x="210.28" y="0">L</tspan><tspan class="cls-12" x="256.49" y="0">i</tspan><tspan class="cls-13" x="282.32" y="0">f</tspan><tspan class="cls-12" x="311.74" y="0">e</tspan></text><path class="cls-14" d="M14.53,85c0,.73,0,1.46,0,2.18s0,1.34.1,2c0,.15,0,.28,0,.42a6.12,6.12,0,0,0,.06.63c0,.22,0,.45.07.67s.05.47.09.71.1.74.16,1.1l0,.2c0,.31.11.62.17.93l.15.78.14.64c.05.22.11.43.16.65l.21.81c.11.43.24.87.37,1.3s.21.7.33,1,.2.6.31.9l.21.55c.17.47.36.94.55,1.4.08.2.17.4.26.59l.36.81a40.1,40.1,0,0,0,3.06,5.45c.15.23.3.45.46.67.4.58.82,1.14,1.25,1.7a39.78,39.78,0,0,0,4.36,4.75c.23.22.46.42.69.63s.7.62,1.07.92.47.39.71.58l.71.54c.53.41,1.07.8,1.62,1.18s1,.64,1.46.94l.7.43c.25.16.51.31.77.45l1.15.64c.5.25,1,.5,1.49.73l.44.2c.36.17.71.33,1.08.48.75.32,1.52.62,2.3.89l.94.32c.25.09.49.17.74.24l.66.19.55.16.9.23c.84.2,1.67.38,2.5.53.4.08.79.14,1.18.2l1.22.16c1,.12,2,.2,3,.24l.88,0,1,0c.68,0,1.34,0,2,0q.63,0,1.26-.09c.28,0,.57,0,.84-.07.75-.08,1.49-.17,2.22-.29l1.26-.22.83-.16c.21,0,.42-.09.63-.15l.68-.15.92-.23c1.07-.3,2.14-.63,3.2-1l.7-.26c.24-.09.48-.18.73-.29.46-.18.91-.37,1.36-.57l.66-.31.45-.21.44-.22c.63-.31,1.26-.64,1.87-1L76,121l0,0c.28-.15.57-.33.84-.51a37.56,37.56,0,0,0,3.25-2.3l.81-.64.83-.71q1.36-1.18,2.64-2.52c.33-.35.66-.7,1-1.07s.64-.74,1-1.11a39.46,39.46,0,0,0,4.12-6c.18-.32.37-.65.54-1s.24-.46.35-.69.24-.46.35-.7A39.52,39.52,0,0,0,94,98.06c.11-.36.21-.72.31-1.08.06-.2.11-.39.16-.59l.09-.33c.07-.3.14-.59.2-.88l0-.11c.1-.45.19-.91.29-1.37a1.13,1.13,0,0,1,0-.18c.08-.45.16-.91.22-1.36s.12-.87.18-1.3a1.24,1.24,0,0,1,0-.27c0-.47.09-1,.13-1.42s0-.68,0-1a2.83,2.83,0,0,0,0-.29c0-.19,0-.38,0-.58,0-.37,0-.76,0-1.13s0-.71,0-1.07,0-.88-.05-1.32c0-.24,0-.48,0-.72s0-.47-.07-.71c-.08-1-.2-1.89-.36-2.84,0-.21-.07-.43-.12-.65s-.09-.53-.15-.8c-.2-1-.44-2-.71-3-.14-.46-.27-.92-.42-1.38s-.24-.73-.37-1.1L45.7,125.45Z"/><path class="cls-15" d="M0,73.38c0,.14,0,.27,0,.4h0a64.53,64.53,0,0,0,21.11,45.28,51.55,51.55,0,0,1-5.49-6c-.55-.71-1.08-1.42-1.58-2.15-.2-.28-.4-.56-.58-.85a49,49,0,0,1-3.86-6.87c-.16-.34-.31-.68-.46-1s-.22-.49-.32-.74c-.25-.59-.48-1.18-.7-1.77L7.92,99q-.21-.57-.39-1.14t-.42-1.32c-.17-.55-.33-1.1-.47-1.65-.09-.34-.18-.68-.26-1s-.14-.54-.2-.82L6,92.23c-.07-.33-.13-.65-.19-1s-.15-.78-.21-1.17a2.17,2.17,0,0,1,0-.25c-.08-.46-.15-.93-.21-1.39,0-.3-.08-.6-.11-.9s-.07-.56-.09-.84-.06-.52-.07-.79a4.73,4.73,0,0,1,0-.53c-.07-.83-.11-1.67-.13-2.51s0-1.84,0-2.76h0c0-1.28.12-2.55.25-3.83,0-.46.1-.92.17-1.37s.07-.59.12-.88c.15-1.08.35-2.16.58-3.22.13-.58.26-1.16.41-1.74,0,0,0,0,0,0,.11-.46.23-.92.36-1.37l.06-.19q.18-.64.39-1.29c.14-.46.29-.91.45-1.37.07-.21.15-.43.23-.64s.17-.48.26-.72.26-.69.41-1,.21-.53.33-.8c.19-.46.4-.93.61-1.39s.53-1.14.82-1.7c.53-1.05,1.11-2.09,1.72-3.12l.24-.4c.19-.32.4-.65.61-1l.36-.56c.24-.37.49-.74.76-1.12s.5-.72.78-1.08.49-.67.75-1c.36-.48.74-1,1.13-1.42s.63-.75,1-1.12a50.92,50.92,0,0,1,12.48-10.3q1.5-.88,3-1.65c.52-.26,1-.51,1.55-.74s1.05-.47,1.57-.69,1.06-.44,1.59-.64,1.07-.4,1.61-.58,1.16-.39,1.75-.57l1.51-.43c.64-.17,1.28-.34,1.93-.48L46,31.36l.16,0c.52-.1,1-.2,1.57-.28s1.11-.18,1.67-.25c.38-.06.77-.1,1.15-.14l.83-.08c.53-.06,1.07-.1,1.6-.13l1.08-.05h.3c1.52-.06,3-.05,4.55,0,.9,0,1.81.11,2.71.21.43,0,.86.09,1.28.16l.83.11a50.48,50.48,0,0,1,8.5,2l.76.26c.79.27,1.57.56,2.34.88a5.89,5.89,0,0,1,.58.24,4.87,4.87,0,0,1,.57.24l1,.42c.66.3,1.3.62,1.94.94.42.21.83.43,1.24.66.82.44,1.64.91,2.44,1.42.4.24.8.5,1.2.76s.64.42,1,.64l.63.44c1,.74,2.05,1.52,3.05,2.35q1.14.95,2.22,2,.87.81,1.68,1.65l.66.68c.81.86,1.58,1.73,2.31,2.63l.52.63c.22.27.44.55.65.83s.58.78.85,1.17a8.86,8.86,0,0,1,.52.73c.22.3.42.6.62.91s.3.45.44.68c.26.4.51.79.74,1.2l.25.42q.39.65.75,1.32c.12.22.24.44.35.66a.05.05,0,0,1,0,0c.25.46.48.92.7,1.38.34.68.66,1.38,1,2.08.23.51.45,1,.65,1.54s.46,1.19.67,1.79v0h0c.16.46.32.92.46,1.38s.37,1.16.53,1.74c.35,1.24.65,2.48.9,3.74.07.34.14.67.19,1s.1.55.15.82c.2,1.19.35,2.38.46,3.58,0,.3.06.6.08.9l.06.9c0,.56.06,1.12.07,1.67s0,.9,0,1.35,0,1,0,1.42l0,.74c0,.12,0,.24,0,.36,0,.42,0,.85-.07,1.27,0,.6-.1,1.2-.16,1.8,0,.11,0,.22,0,.33-.06.55-.14,1.09-.22,1.64s-.18,1.15-.28,1.72a1.85,1.85,0,0,0,0,.23c-.11.58-.23,1.15-.37,1.73l0,.13c-.07.37-.16.74-.26,1.11,0,.14-.07.28-.11.42s-.12.49-.2.74c-.12.46-.25.91-.39,1.37a49.55,49.55,0,0,1-2.83,7.2c-.14.3-.28.59-.44.89s-.29.58-.44.86-.45.82-.68,1.23a50.82,50.82,0,0,1-5.2,7.53c-.39.48-.8.94-1.21,1.4s-.82.91-1.25,1.35q-1.6,1.68-3.33,3.18l-1,.89c-.33.28-.67.55-1,.81a46.94,46.94,0,0,1-4.1,2.9c-.35.23-.71.45-1.06.65l-.06,0c-.35.22-.7.42-1,.61-.78.45-1.57.87-2.36,1.26-.18.1-.37.19-.56.28L78,128l-.83.38c-.57.26-1.14.5-1.72.73-.31.13-.61.25-.92.36s-.59.23-.88.33c-1.33.49-2.68.91-4,1.28l-1.15.29c-.29.08-.58.14-.86.2l-.8.18-1,.21q-.8.15-1.59.27c-.93.15-1.86.27-2.8.37-.35,0-.71.07-1.07.09-.53,0-1.06.08-1.59.11-.85,0-1.69.06-2.54.06l-1.26,0c-.37,0-.74,0-1.11,0q-1.87-.07-3.72-.3c-.51-.06-1-.13-1.54-.21s-1-.15-1.49-.24c-1-.19-2.1-.42-3.15-.68l-1.14-.29-.7-.2-.83-.24-.93-.3c-.4-.12-.8-.26-1.19-.4-1-.34-2-.72-2.9-1.12-.46-.19-.91-.39-1.36-.61l-.55-.25c-.63-.29-1.26-.61-1.88-.93s-1-.52-1.46-.8c-.32-.18-.65-.37-1-.57s-.59-.35-.88-.54c-.62-.38-1.24-.78-1.84-1.19A64.72,64.72,0,1,0,0,73.38Z"/><circle class="cls-14" cx="64.01" cy="52.58" r="8.5"/></g></g></g></svg>