<svg xmlns="http://www.w3.org/2000/svg" viewBox="0 0 130.59 130.57"><defs><style>.cls-1{fill:none;stroke:#0ca7a9;stroke-miterlimit:10;}</style></defs><g id="Layer_2" data-name="Layer 2"><g id="Layer_3" data-name="Layer 3"><path class="cls-1" d="M15,79.07q0,1.09,0,2.19c0,.66,0,1.33.1,2,0,.14,0,.27,0,.42a6.2,6.2,0,0,0,.06.62c0,.23,0,.45.07.67s.05.48.09.71.1.74.16,1.11l0,.19c0,.31.11.62.17.93l.15.78.14.64c0,.22.11.44.16.65l.21.81c.11.43.24.87.37,1.31s.21.69.33,1,.2.61.31.91.14.36.21.54c.17.47.36.94.55,1.41.08.2.17.39.26.58l.36.81a40.1,40.1,0,0,0,3.06,5.45c.15.23.3.45.46.67.4.58.82,1.14,1.25,1.71A41.38,41.38,0,0,0,27.92,110l.69.62c.35.31.7.62,1.07.92s.47.39.71.58l.71.55q.79.6,1.62,1.17c.48.33,1,.64,1.46.94.23.15.46.3.7.43s.51.31.77.45l1.15.64c.5.25,1,.51,1.49.74l.44.19,1.08.49c.75.31,1.52.62,2.3.88.31.12.62.22.94.32s.49.17.74.24l.66.19.55.16.9.23c.84.2,1.67.39,2.5.54l1.18.19c.41.06.82.12,1.22.16,1,.12,2,.2,3,.24l.88,0,1,0c.68,0,1.34,0,2,0q.63,0,1.26-.09c.28,0,.57,0,.84-.07.75-.08,1.49-.17,2.22-.29q.63-.09,1.26-.21l.83-.17.63-.14.68-.16.92-.23c1.07-.29,2.14-.63,3.2-1,.23-.08.47-.16.7-.26l.73-.28,1.36-.58.66-.3.45-.22c.15-.07.3-.14.44-.22.63-.31,1.26-.64,1.87-1l.84-.48,0,0c.28-.16.57-.34.84-.52a37.56,37.56,0,0,0,3.25-2.3c.27-.2.54-.42.81-.64l.83-.71q1.36-1.18,2.64-2.52c.33-.35.66-.7,1-1.07s.64-.73,1-1.11a39.46,39.46,0,0,0,4.12-6c.18-.32.37-.65.54-1s.24-.45.35-.68.24-.47.35-.71a38.63,38.63,0,0,0,2.24-5.71c.11-.36.21-.72.31-1.08.06-.2.11-.39.16-.59l.09-.33c.07-.3.14-.59.2-.88l0-.1c.1-.46.19-.92.29-1.38a1.13,1.13,0,0,1,0-.18c.08-.45.16-.9.22-1.36S96,85.4,96,85a1.09,1.09,0,0,1,0-.26c0-.48.09-1,.13-1.43s0-.67,0-1a2.64,2.64,0,0,0,0-.28c0-.19,0-.39,0-.59,0-.37,0-.75,0-1.13s0-.71,0-1.07,0-.88-.05-1.32c0-.24,0-.48,0-.71s0-.48-.07-.72c-.08-1-.2-1.89-.36-2.83,0-.22-.07-.43-.12-.65s-.09-.54-.15-.81c-.2-1-.44-2-.71-3-.14-.46-.27-.92-.42-1.38s-.24-.73-.37-1.09L46.2,119.56Z"/><path class="cls-1" d="M.54,67.49c0,.14,0,.27,0,.4h0a64.53,64.53,0,0,0,21.11,45.28,51.55,51.55,0,0,1-5.49-6c-.55-.71-1.08-1.42-1.58-2.15-.2-.28-.4-.56-.58-.85a49,49,0,0,1-3.86-6.87c-.16-.34-.31-.68-.46-1s-.22-.49-.32-.74c-.25-.59-.48-1.18-.7-1.77l-.26-.69Q8.21,92.53,8,92t-.42-1.32c-.17-.55-.33-1.1-.47-1.65-.09-.34-.18-.68-.26-1s-.14-.54-.2-.82l-.18-.81c-.07-.33-.13-.65-.19-1s-.15-.78-.21-1.17a2.17,2.17,0,0,1,0-.25c-.08-.46-.15-.93-.21-1.39,0-.3-.08-.6-.11-.9s-.07-.56-.09-.84-.06-.52-.07-.79a4.73,4.73,0,0,1,0-.53c-.07-.83-.11-1.67-.13-2.51s0-1.84,0-2.76h0c0-1.28.12-2.55.25-3.83,0-.46.1-.92.17-1.37s.07-.59.12-.88c.15-1.08.35-2.16.58-3.22.13-.58.26-1.16.41-1.74,0,0,0,0,0,0,.11-.46.23-.92.36-1.37l.06-.19q.18-.65.39-1.29c.14-.46.29-.91.45-1.37.07-.21.15-.43.23-.64s.17-.48.26-.72.26-.69.41-1,.21-.53.33-.8c.19-.46.4-.93.61-1.39s.53-1.14.82-1.7c.53-1.05,1.11-2.09,1.72-3.12l.24-.4c.19-.32.4-.65.61-1l.36-.56c.24-.37.49-.74.76-1.12s.5-.72.78-1.08.49-.67.75-1c.36-.48.74-1,1.13-1.42s.63-.75,1-1.12a50.92,50.92,0,0,1,12.48-10.3q1.5-.88,3-1.65c.52-.26,1-.51,1.55-.74s1.05-.47,1.57-.69,1.06-.44,1.59-.64,1.07-.4,1.61-.58,1.16-.39,1.75-.57l1.51-.43c.64-.17,1.28-.34,1.93-.48l1.32-.29.16,0c.52-.1,1-.2,1.57-.28s1.11-.18,1.67-.25c.38-.06.77-.1,1.15-.14l.83-.08c.53-.06,1.07-.1,1.6-.13l1.08,0h.3c1.52-.06,3-.05,4.55,0,.9,0,1.81.11,2.71.21.43,0,.86.09,1.28.16l.83.11a50.48,50.48,0,0,1,8.5,2l.76.26c.79.27,1.57.56,2.34.88a5.89,5.89,0,0,1,.58.24,4.87,4.87,0,0,1,.57.24c.32.13.64.28,1,.42.66.3,1.3.62,1.94.94.42.21.83.43,1.24.66.82.44,1.64.91,2.44,1.42.4.24.8.5,1.2.76s.64.42,1,.64l.63.44c1,.74,2.05,1.52,3.05,2.35q1.14.95,2.22,2,.87.81,1.68,1.65l.66.68c.81.86,1.58,1.73,2.31,2.63l.52.63c.22.27.44.55.65.83s.58.78.85,1.17a8.86,8.86,0,0,1,.52.73c.22.3.42.6.62.91s.3.45.44.68c.26.4.51.79.74,1.2l.25.42q.39.65.75,1.32c.12.22.24.44.35.66a.05.05,0,0,1,0,0c.25.46.48.92.7,1.38.34.68.66,1.38,1,2.08.23.51.45,1,.65,1.54s.46,1.19.67,1.79v0h0c.16.46.32.92.46,1.38s.37,1.16.53,1.74c.35,1.24.65,2.48.9,3.74.07.34.14.67.19,1s.1.55.15.82c.2,1.19.35,2.38.46,3.58,0,.3.06.6.08.9l.06.9c0,.56.06,1.12.07,1.67s0,.9,0,1.35,0,1,0,1.42l0,.74c0,.12,0,.24,0,.36,0,.42,0,.85-.07,1.27,0,.6-.1,1.2-.16,1.8,0,.11,0,.22,0,.33-.06.55-.14,1.09-.22,1.64s-.18,1.15-.28,1.72a1.85,1.85,0,0,0,0,.23c-.11.58-.23,1.15-.37,1.73l0,.13c-.07.37-.16.74-.26,1.11,0,.14-.07.28-.11.42s-.12.49-.2.74c-.12.46-.25.91-.39,1.37a49.55,49.55,0,0,1-2.83,7.2c-.14.3-.28.59-.44.89s-.29.58-.44.86-.45.82-.68,1.23a50.82,50.82,0,0,1-5.2,7.53c-.39.48-.8.94-1.21,1.4s-.82.91-1.25,1.35q-1.6,1.68-3.33,3.18l-1,.89c-.33.28-.67.55-1,.81a46.94,46.94,0,0,1-4.1,2.9c-.35.23-.71.45-1.06.65l-.06,0c-.35.22-.7.42-1,.61-.78.45-1.57.87-2.36,1.26-.18.1-.37.19-.56.28l-.57.27-.83.38c-.57.26-1.14.5-1.72.73-.31.13-.61.25-.92.36s-.59.23-.88.33c-1.33.49-2.68.91-4,1.28l-1.15.29c-.29.08-.58.14-.86.2l-.8.18-1,.21q-.8.15-1.59.27c-.93.15-1.86.27-2.8.37-.35,0-.71.07-1.07.09-.53,0-1.06.08-1.59.11-.85,0-1.69.06-2.54.06l-1.26,0c-.37,0-.74,0-1.11,0q-1.87-.08-3.72-.3c-.51-.06-1-.13-1.54-.21s-1-.15-1.49-.24c-1-.19-2.1-.42-3.15-.68l-1.14-.29-.7-.2-.83-.24q-.46-.13-.93-.3c-.4-.12-.8-.26-1.19-.4-1-.34-2-.72-2.9-1.12-.46-.19-.91-.39-1.36-.61l-.55-.25c-.63-.29-1.26-.61-1.88-.93s-1-.52-1.46-.8c-.32-.18-.65-.37-1-.57s-.59-.35-.88-.54c-.62-.38-1.24-.78-1.84-1.19A64.72,64.72,0,1,0,.54,67.49Z"/><circle class="cls-1" cx="64.51" cy="46.69" r="8.5"/></g></g></svg>